<?xml version="1.0" encoding="utf-8"?>
<!-- Generator: Adobe Illustrator 23.0.1, SVG Export Plug-In . SVG Version: 6.00 Build 0)  -->
<svg version="1.1" id="Layer_1" xmlns="http://www.w3.org/2000/svg" xmlns:xlink="http://www.w3.org/1999/xlink" x="0px" y="0px"
	 viewBox="0 0 2500 536.5" style="enable-background:new 0 0 2500 536.5;" xml:space="preserve">
<style type="text/css">
	.st0{fill:url(#SVGID_1_);}
	.st1{fill:url(#SVGID_2_);}
	.st2{fill:url(#SVGID_3_);}
	.st3{fill:#333333;}
	.st4{fill:url(#SVGID_4_);}
	.st5{fill:url(#SVGID_5_);}
	.st6{fill:url(#SVGID_6_);}
	.st7{fill:url(#SVGID_7_);}
</style>
<linearGradient id="SVGID_1_" gradientUnits="userSpaceOnUse" x1="279.8296" y1="20.2606" x2="250.5039" y2="598.7761">
	<stop  offset="0" style="stop-color:#5D2CA2"/>
	<stop  offset="0.5391" style="stop-color:#4538A2"/>
	<stop  offset="1" style="stop-color:#210750"/>
</linearGradient>
<path class="st0" d="M154.4,480.8l44.8-416.3c0.8-4.1,3.1-6.1,6.8-6.1h44.2c4.1,0,6.2,1.8,6.2,5.5l11.2,169.6c0,2,1,3.1,3.1,3.1
	c0.8,0,1.8-0.3,2.8-0.9c1-0.6,1.6-1.3,1.6-2.1l47.3-169.6c1.2-3.7,3.7-5.5,7.5-5.5h44.2c2.1,0,3.6,0.6,4.7,1.8
	c1,1.2,1.3,2.7,0.9,4.3l-44.8,416.3c0,1.6-0.6,3.1-1.9,4.3c-1.2,1.2-2.9,1.8-5,1.8h-43.5c-3.7,0-5.6-2-5.6-6.1l23.6-220.4
	c0.8-2,0-3.1-2.5-3.1h-0.6c-2.5,0-3.9,1-4.4,3.1l-21.1,99.2c-0.4,3.7-2.7,5.5-6.8,5.5h-19.9c-1.7,0-2.9-0.4-3.7-1.2
	c-0.8-0.8-1.5-2.2-1.9-4.3v-98.6c0.4-2-0.6-3.1-3.1-3.1h-0.6c-1.7,0-2.9,1-3.7,3.1l-23.6,219.8c0,1.6-0.6,3.1-1.9,4.3
	c-1.2,1.2-2.9,1.8-5,1.8H160C156.3,487,154.4,484.9,154.4,480.8z"/>
<linearGradient id="SVGID_2_" gradientUnits="userSpaceOnUse" x1="471.103" y1="42.3224" x2="451.1082" y2="492.8714">
	<stop  offset="0" style="stop-color:#2D44A5"/>
	<stop  offset="0.2104" style="stop-color:#3043A7"/>
	<stop  offset="0.3621" style="stop-color:#3940AE"/>
	<stop  offset="0.495" style="stop-color:#493ABB"/>
	<stop  offset="0.5391" style="stop-color:#5038C0"/>
	<stop  offset="1" style="stop-color:#2B0C82"/>
</linearGradient>
<path class="st1" d="M532.5,482.1c0,1.6-0.6,2.9-1.9,3.7c-1.2,0.8-2.7,1.2-4.4,1.2h-43.5c-4.1,0-6.2-2-6.2-6.1l3.7-75.3h-40.4
	l-13.1,75.3c0,4.1-2.5,6.1-7.5,6.1h-43.5c-4.1,0-5.8-2-5-6.1l81.5-416.3c1.2-4.1,3.7-6.1,7.5-6.1h74.6c4.1,0,6.2,2,6.2,6.1
	l-8.1,416.3V482.1z M448.6,353.5h34.2l9.3-203.3h-9.3L448.6,353.5z"/>
<linearGradient id="SVGID_3_" gradientUnits="userSpaceOnUse" x1="668.2411" y1="33.3984" x2="670.0184" y2="532.8234">
	<stop  offset="0" style="stop-color:#1854AA"/>
	<stop  offset="0.2081" style="stop-color:#1B54AD"/>
	<stop  offset="0.3582" style="stop-color:#2453B6"/>
	<stop  offset="0.4897" style="stop-color:#3451C5"/>
	<stop  offset="0.5391" style="stop-color:#3C50CD"/>
	<stop  offset="1" style="stop-color:#2C1BA7"/>
</linearGradient>
<path class="st2" d="M559.9,480.2l68.4-202c0.8-1.6,1.2-4.1,1.2-7.3L607.8,65.1v-1.2c0-1.6,0.6-3,1.9-4c1.2-1,2.7-1.5,4.4-1.5h47.9
	c3.7,0,5.6,1.8,5.6,5.5l7.5,139.6c0,2,1.2,3.1,3.7,3.1h3.1c2.5,0,3.7-1,3.7-3.1l37.9-139.6c1.2-3.7,3.5-5.5,6.8-5.5h43.5
	c4.1,0,5.8,2.2,5,6.7l-65.3,205.7c-0.8,1.6-1.2,4.1-1.2,7.3l26.1,202c0,4.5-2.1,6.7-6.2,6.7h-46c-3.3,0-5.4-1.8-6.2-5.5l-11.8-151.2
	c0.4-0.8,0.2-1.5-0.6-2.1c-0.8-0.6-1.7-0.9-2.5-0.9h-1.9c-2.1,0-3.5,1-4.4,3.1l-42.9,151.2c-0.4,3.7-2.9,5.5-7.5,5.5h-44.8
	C559.5,487,558.2,484.7,559.9,480.2z"/>
<g>
	<path class="st3" d="M770.7,480.8l44.8-416.3c0.8-4.1,3.1-6.1,6.8-6.1h102.6c2.1,0,3.6,0.6,4.7,1.8c1,1.2,1.3,2.7,0.9,4.3
		l-4.4,39.8c-0.8,4.1-3.1,6.1-6.8,6.1h-49.8c-2.1,0-3.1,1-3.1,3.1L852.8,239c0,2,0.8,3.1,2.5,3.1h24.9c2.1,0,3.6,0.6,4.7,1.8
		c1,1.2,1.3,2.7,0.9,4.3L882,288c-0.8,4.1-3.1,6.1-6.8,6.1h-24.9c-2.5,0-3.7,1-3.7,3.1l-14.3,134.7c0,2,0.8,3.1,2.5,3.1h49.8
		c2.1,0,3.6,0.6,4.7,1.8c1,1.2,1.3,2.7,0.9,4.3l-4.4,39.8c0,1.6-0.6,3.1-1.9,4.3c-1.2,1.2-2.9,1.8-5,1.8H776.3
		C772.6,487,770.7,484.9,770.7,480.8z"/>
	<path class="st3" d="M947.3,483.9l-19.9-22c-2.1-2-2.9-4.5-2.5-7.3l12.4-118.2c0.8-4.1,3.1-6.1,6.8-6.1h43.5c2.1,0,3.6,0.6,4.7,1.8
		c1,1.2,1.3,2.7,0.9,4.3l-10,95.5c0,2,0.8,3.1,2.5,3.1h24.9c2.5,0,3.7-1,3.7-3.1l9.3-88.2c0-2.4-0.6-4.5-1.9-6.1l-69.7-111.4
		c-1.7-3.3-2.3-5.9-1.9-8l13.1-127.3c0.8-3.3,2.3-5.7,4.4-7.3l24.3-22c2.9-2,5.6-3.1,8.1-3.1h76.5c3.3,0,5.6,1,6.8,3.1l21.1,22
		c1.7,2.4,2.3,4.9,1.9,7.3l-12.4,117.5c0,1.6-0.6,3.1-1.9,4.3c-1.2,1.2-2.9,1.8-5,1.8h-43.5c-3.7,0-5.6-2-5.6-6.1l10.6-94.9
		c0-2-1-3.1-3.1-3.1h-24.9c-2.1,0-3.1,1-3.1,3.1l-9.3,84.5c0,3.3,0.8,6.1,2.5,8.6l69.7,112c1.7,2.4,2.1,4.3,1.2,5.5L1068,454.5
		c-0.4,2.9-1.7,5.3-3.7,7.3l-25.5,22c-2.1,2-4.8,3.1-8.1,3.1h-76.5C951.7,487,949.4,485.9,947.3,483.9z"/>
	<path class="st3" d="M1107.2,480.8l44.8-416.3c0.8-4.1,3.1-6.1,6.8-6.1h103.9c3.3,0,5.6,1,6.8,3.1l20.5,22c1.7,2.4,2.3,4.9,1.9,7.3
		l-24.3,229.6c-0.4,2.9-1.7,5.3-3.7,7.3l-24.9,22c-2.1,2-4.8,3.1-8.1,3.1h-51c-2.1,0-3.1,1-3.1,3.1l-13.7,124.9
		c0,1.6-0.6,3.1-1.9,4.3c-1.2,1.2-2.9,1.8-5,1.8h-43.5C1109,487,1107.2,484.9,1107.2,480.8z M1212.3,299c1.2-1.2,1.9-2.6,1.9-4.3
		l19.3-178.2v-1.2c0-3.3-1.9-4.9-5.6-4.9h-24.9l-20.5,190.4h24.9C1209.4,300.8,1211,300.2,1212.3,299z"/>
	<path class="st3" d="M1318,483.9l-19.9-22c-2.1-2-2.9-4.5-2.5-7.3l38.6-363.7c0.8-3.3,2.3-5.7,4.4-7.3l24.3-22
		c2.9-2,5.6-3.1,8.1-3.1h77.1c3.3,0,5.6,1,6.8,3.1l20.5,22c1.7,2.4,2.3,4.9,1.9,7.3l-38.6,363.7c-0.4,2.9-1.7,5.3-3.7,7.3l-24.9,22
		c-2.1,2-4.8,3.1-8.1,3.1h-77.1C1322.3,487,1320.1,485.9,1318,483.9z M1385.1,431.9l34.2-318.4c0-2-1-3.1-3.1-3.1h-24.9
		c-2.1,0-3.1,1-3.1,3.1l-34.2,318.4c0,2,0.8,3.1,2.5,3.1h24.9C1383.9,434.9,1385.1,433.9,1385.1,431.9z"/>
	<path class="st3" d="M1477.8,480.8l44.8-416.3c0.8-4.1,3.1-6.1,6.8-6.1h103.9c3.3,0,5.6,1,6.8,3.1l20.5,22c1.7,2.4,2.3,4.9,1.9,7.3
		l-22.4,211.2c0,2.4-1,5.1-3.1,8l-11.2,12.9c-2.5,2.4-2.9,5.3-1.2,8.6l8.7,12.9c1.2,2.4,1.9,4.9,1.9,7.3l-14.3,129.2
		c0,1.6-0.6,3.1-1.9,4.3c-1.2,1.2-2.9,1.8-5,1.8h-43.5c-3.7,0-5.6-2-5.6-6.1l13.1-121.8v-1.2c0-3.3-1.9-4.9-5.6-4.9h-24.9l-13.7,128
		c0,1.6-0.6,3.1-1.9,4.3c-1.2,1.2-2.9,1.8-5,1.8h-43.5C1479.7,487,1477.8,484.9,1477.8,480.8z M1582.9,299c1.2-1.2,1.9-2.6,1.9-4.3
		l19.3-178.2v-1.2c0-3.3-1.9-4.9-5.6-4.9h-24.9l-20.5,190.4h24.9C1580,300.8,1581.7,300.2,1582.9,299z"/>
	<path class="st3" d="M1697.3,480.8l39.8-367.3c0-2-1-3.1-3.1-3.1h-31.1c-2.1,0-3.6-0.6-4.7-1.8c-1-1.2-1.3-2.7-0.9-4.3l4.4-39.8
		c0.8-4.1,3.1-6.1,6.8-6.1h124.4c2.1,0,3.6,0.6,4.7,1.8c1,1.2,1.3,2.7,0.9,4.3l-4.4,39.8c-0.8,4.1-3.1,6.1-6.8,6.1h-31.1
		c-2.1,0-3.1,1-3.1,3.1l-39.8,367.3c0,1.6-0.6,3.1-1.9,4.3c-1.2,1.2-2.9,1.8-5,1.8h-43.5C1699.2,487,1697.3,484.9,1697.3,480.8z"/>
</g>
<linearGradient id="SVGID_4_" gradientUnits="userSpaceOnUse" x1="1995.8362" y1="106.1424" x2="1937.1848" y2="452.7185">
	<stop  offset="0" style="stop-color:#0F2AB7"/>
	<stop  offset="0.4944" style="stop-color:#4341C9"/>
	<stop  offset="1" style="stop-color:#0D6CBE"/>
</linearGradient>
<polygon class="st4" points="1915.2,130.5 2043.9,274.4 1885.7,418.1 1894.8,330.8 1957.7,274.3 1906.4,217.8 "/>
<linearGradient id="SVGID_5_" gradientUnits="userSpaceOnUse" x1="2281.1274" y1="134.779" x2="2249.1357" y2="362.2751">
	<stop  offset="0" style="stop-color:#190737"/>
	<stop  offset="0.1972" style="stop-color:#1C083B"/>
	<stop  offset="0.4059" style="stop-color:#260948"/>
	<stop  offset="0.6201" style="stop-color:#370C5D"/>
	<stop  offset="0.8365" style="stop-color:#4E107B"/>
	<stop  offset="1" style="stop-color:#641396"/>
</linearGradient>
<polygon class="st5" points="2345.6,130.5 2187.1,274.3 2315.7,418.1 2324.9,331.4 2274.2,274.3 2336.1,217.3 "/>
<linearGradient id="SVGID_6_" gradientUnits="userSpaceOnUse" x1="1994.5688" y1="131.8516" x2="2281.0125" y2="131.8516">
	<stop  offset="0" style="stop-color:#000C7A"/>
	<stop  offset="0.253" style="stop-color:#010C76"/>
	<stop  offset="0.5209" style="stop-color:#050D69"/>
	<stop  offset="0.7946" style="stop-color:#0C0F54"/>
	<stop  offset="1" style="stop-color:#12103F"/>
</linearGradient>
<polygon class="st6" points="1994.6,60 2081.1,60 2131.7,116.6 2194.5,60 2281,60 2122.5,203.7 "/>
<linearGradient id="SVGID_7_" gradientUnits="userSpaceOnUse" x1="1949.9138" y1="417.5918" x2="2236.2834" y2="417.5918">
	<stop  offset="0" style="stop-color:#1E5FC1"/>
	<stop  offset="0.6104" style="stop-color:#3C3D9F"/>
	<stop  offset="1" style="stop-color:#4B2D8F"/>
</linearGradient>
<polygon class="st7" points="1949.9,489.2 2108.3,345.9 2236.3,489.2 2149.9,489.2 2099,432.4 2036.1,489.2 "/>
</svg>
